<?xml version="1.0" encoding="UTF-8"?>
<svg viewBox="0 0 100 100" xmlns="http://www.w3.org/2000/svg">
 <defs>
  <filter id="c">
   <feGaussianBlur stdDeviation="1.1185"/>
  </filter>
  <filter id="b">
   <feGaussianBlur stdDeviation=".7383"/>
  </filter>
  <filter id="d" x="-.32914" y="-.13801" width="1.6583" height="1.276">
   <feGaussianBlur stdDeviation="4.0397"/>
  </filter>
  <radialGradient id="a" cx="-150.49" cy="131.6" r="27.879" gradientUnits="userSpaceOnUse">
   <stop stop-color="#fff" offset="0"/>
   <stop stop-color="#fff" stop-opacity="0" offset="1"/>
  </radialGradient>
 </defs>
 <g transform="translate(179.57 -85.367)">
  <path d="m-97.374 144.32c0 18.452-14.416 33.41-32.199 33.41s-32.199-14.958-32.199-33.41 32.199-51.325 32.199-51.325 32.199 32.873 32.199 51.325z" filter="url(#c)"/>
  <path d="m-97.374 144.32c0 18.452-14.416 33.41-32.199 33.41s-32.199-14.958-32.199-33.41 32.199-51.325 32.199-51.325 32.199 32.873 32.199 51.325z" fill="#83cadd"/>
  <path d="m-129.56 92.444s-32.219 32.861-32.219 51.312c0 0.59785 0.0326 1.1911 0.0625 1.7812 18.659-21.934 33.105-26.857 51.219-30.344-8.9084-12.369-19.062-22.75-19.062-22.75z" fill="#fff" fill-opacity=".2618"/>
  <path transform="matrix(.27598 -.37808 .20114 .1681 -194.35 122.77)" d="m107.3 151.81c0 11.523-9.4625 20.864-21.135 20.864s-21.135-9.3412-21.135-20.864 9.4625-20.864 21.135-20.864 21.135 9.3412 21.135 20.864z" fill="#fff" filter="url(#d)"/>
  <path transform="translate(21.62 14.508)" d="m-122.61 131.6c0 15.397-12.482 27.879-27.879 27.879s-27.879-12.482-27.879-27.879 12.482-27.879 27.879-27.879 27.879 12.482 27.879 27.879z" fill="url(#a)"/>
  <path d="m-100.92 135.76c0.29551 0.99553 0.50762 1.982 0.62389 2.9247 2.1109 17.115-9.4546 32.625-25.845 34.646-13.649 1.6833-26.324-6.5241-31.404-19.198 4.4 13.97 17.756 23.295 32.216 21.511 16.39-2.0215 27.985-17.534 25.874-34.65-0.20519-1.6638-0.72654-3.4203-1.4643-5.2342z" filter="url(#b)" opacity=".3453"/>
 </g>
</svg>
