<?xml version="1.0" encoding="UTF-8"?>
<!DOCTYPE svg  PUBLIC '-//W3C//DTD SVG 1.1//EN'  'http://www.w3.org/Graphics/SVG/1.1/DTD/svg11.dtd'>
<svg version="1.1" viewBox="0 0 1249 1249" xmlns="http://www.w3.org/2000/svg">
 <defs>
  <linearGradient id="d" x1="677.09" x2="730.32" y1="742.87" y2="742.87" gradientUnits="userSpaceOnUse">
   <stop stop-color="#d3c552" offset="0"/>
   <stop stop-color="#f0e980" offset=".159"/>
   <stop stop-color="#eee67b" offset=".863"/>
   <stop stop-color="#d2c942" offset="1"/>
  </linearGradient>
  <radialGradient id="c" cx="691.52" cy="685.86" r="678.76" gradientUnits="userSpaceOnUse">
   <stop stop-color="#fff596" offset="0"/>
   <stop stop-color="#feee4a" offset=".162"/>
   <stop stop-color="#f4b01e" offset=".355"/>
   <stop stop-color="#feec47" offset=".436"/>
   <stop stop-color="#f8ac11" offset=".542"/>
   <stop stop-color="#ffe940" offset=".664"/>
   <stop stop-color="#f5b00d" offset=".882"/>
  </radialGradient>
 </defs>
 <path d="m660.33 151.64c3.316 9.978 9.43 16.693 14.854 76.537 2.58 31.871 18.601 60.792 21.891 92.533 0.995-24.588 13.766-46.672 26.93-66.692 11.647-17.52 27.588-38.549 42.041-53.043 12.301-12.337 18.986-26.111 18.986-25.841 0 29.398-3.383 57.078-8.137 85.684-2.712 16.321 2.712 34.002 0 50.323-2.804 16.873-8.057 32.16-10.849 48.963-3.246 19.532-30.886 58.789-29.835 59.843 1.347 1.351 10.19-0.337 12.205 0 4.445 0.743 12.967 4.166 16.274-1.36 7.034-11.758-3.662-53.655 12.205-77.524 38.082-57.289 38.083-67.625 97.642-107.45 4.562-3.05 32.962-26.647 36.616-21.761 3.988 5.333 1.356 21.938 1.356 28.561 0 42.745-15.493 78.878-43.397 111.53-7.647 8.948-17.802 18.027-23.054 28.562 34.037-34.136 74.636-59.204 111.2-89.765 4.722-3.946 55.145-38.54 55.602-38.082 4.639 4.652-7.384 39.897-9.493 46.242-3.343 10.057-5.789 25.422-12.205 34.002-15.851 21.196-75.461 94.371-94.93 106.09-9.388 5.649-35.828 16.892-42.04 23.121-0.028 0.029 9.5 18.147 10.849 20.402 1.315 2.199 2.867 5.44 5.424 5.44 0.687 0 33.5-40.397 37.972-44.883 51.544-51.693 87.055-62.014 150.53-93.845 3.875-1.943 37.541-20.77 39.328-13.601 1.257 5.044-6.176 12.388-8.137 16.321-23.104 46.356-58.084 85.596-98.281 117.76 39.016-17.105 82.427-18.317 124.05-23.917 3.847-0.552 39.328-0.236 39.328 2.72 0 16.122-33.765 32.502-43.397 42.162-16.142 15.467-30.997 33.155-50.638 44.364-17.465 9.966-37.433 15.455-56.386 21.789 30.535-2.575 61.382-2.989 91.921-0.198 16.07 1.469 32.82 3.443 47.651 10.209 7.051 3.536 13.282 8.701 20.342 12.241 4.308 2.16 26.266 8.807 27.122 12.241 1.38 5.532-33.733 12.183-37.972 13.6-45.303 14.51-89.851 36.343-138.09 38.961 25.154 4.432 51.289 5.893 75.121 15.829 21.948 9.15 41.904 23.185 61.612 36.335 10.104 6.756 21.757 10.91 32.548 16.321 4.52 2.267 17.135 3.216 13.561 6.801-1.354 1.358-13.861 0.956-16.274 1.36-60.819 10.166-126.64 4.672-187.15-5.441-21.638-3.616-48.673-23.772-50.177-21.761-1.474 1.971-0.97 31.039 0 31.282 7.387 1.852 54.306-5.204 69.163-2.72 40.46 6.763 83.662 16.005 116.63 40.802 12.033 9.051 23.872 17.411 37.972 24.481 1.281 0.643 17.637 8.154 17.63 8.161-0.034 0.034-46.199 0.922-56.958 2.72-23.012 4.183-46.336 5.441-69.66 6.253-11.179 0.221-22.326-0.427-33.444-1.478 16.611 2.676 33.523 5.656 48.858 12.906 7.956 3.989 13.152 11.513 20.342 16.321 10.958 7.326 21.517 15.746 32.548 23.121 1.181 0.79 17.632 9.517 17.63 9.521-1.528 3.063-20.719 4.206-24.411 5.44-28.507 8.947-58.668 10.742-88.353 10.81-19.636-0.461-39.499-1.821-58.484-7.2 28.551 21.526 47.64 52.489 72.249 77.994 4.617 4.63 37.157 35.909 33.904 40.803-0.219 0.329-39.827-0.338-43.396-1.36-74.178-21.255-118.09-38.757-169.52-100.65-3.289-3.959-10.721-16.567-16.274-17.681-3.606-0.723-12.684 4.241-16.273 5.44-2.609 0.872-8.137-1.397-8.137 1.36 0 3.807 24.893 17.243 28.479 19.041 42.024 21.074 59.033 37.804 85.437 77.525 4.223 6.353 48.041 70.077 42.04 72.084-2.877 0.961-5.146-3.581-8.137-4.08-58.026-9.7-128.33-36.644-162.74-88.405-3.198-4.812-24.396-47.6-24.41-47.603-1.716-0.344-8.591 3.324-12.205 2.72-0.675-0.113-7.079-2.951-8.137-1.36-2.637 3.967 15.755 28.592 18.986 32.642 7.039 8.824 18.6 12.778 25.766 21.761 19.05 23.881 38.635 57.728 44.753 88.405 1.327 6.654 13.534 77.524 5.425 77.524-6.864 0-25.178-22.531-29.836-27.201-25.457-25.531-28.993-40.606-46.108-61.204-11.214-13.495-31.765-28.351-39.328-43.522-7.929-15.904-9.362-31.855-12.206-48.963-2.316-13.936-2.906-31.476-20.342-28.561-2.401 0.401-6.19 0.351-6.78 2.72-1.281 5.139 7.166 12.044 9.493 14.961 9.789 12.272 16.431 37.671 18.986 53.043 3.679 22.142-31.914 164.98-50.178 168.65-1.114 0.223-17.239-31.275-18.986-35.362-17.836-41.74-28.001-96.716-20.342-142.81 1.255-7.547 22.522-68.951 21.699-69.364-2.185-1.095-22.869 47.355-27.123 53.043-13.957 18.663-20.815 42.874-33.904 62.564-10.817 16.272-21.491 37.875-35.259 51.682-8.042 8.065-19.082 16.902-25.767 25.842-2.821 3.772-34.603 31.94-37.972 28.561-0.609-0.61 6.781-18.723 6.781-21.761 0-45.956 49.69-159.01 85.437-187.69 3.465-2.78 27.122-18.713 27.122-21.761 0-4.081-8.136 0-12.205 0-12.355 0-20.417-10.73-27.123 2.72-27.739 55.639-63.422 104.06-115.27 138.73-3.436 2.297-74.588 52.551-74.588 42.162 0-3.328 11.59-17.436 13.561-20.401 7.282-10.954 7.634-27.553 13.562-39.442 17.575-35.253 39.825-73.943 67.807-102.01 11.818-11.853 26.037-26.548 40.684-35.362 3.458-2.081 27.155-14.928 25.766-16.321-3.879-3.891-10.81 0.699-14.917-1.36-2.365-1.186-10.125-11.607-12.205-9.521-5.978 5.995-18.309 39.444-42.041 58.484-21.625 17.35-101.86 44.931-130.19 54.403-4.931 1.648-43.552 11.326-44.753 9.52-2.56-3.852 11.541-20.082 13.562-23.121 22.979-34.568 50.328-62.715 78.656-91.125 18.409-18.463 97.294-50.947 97.642-53.043 0.903-5.432-14.546-17.805-18.986-16.321-3.303 1.104-60.151 36.963-73.232 43.522-35.848 17.977-72.37 15.497-109.85 21.762-10.071 1.683-33.741 11.642-43.396 6.8-8.72-4.373 31.7-32.841 37.972-38.082 20.528-17.157 57.201-47.684 81.368-55.763 12.51-4.182 29.044-6.404 40.684-12.241 5.345-2.68 46.109-9.418 46.109-10.88 0-9.584-27.669-24.952-20.332-39.639l1.075-2.83c-44.523 16.145-83.708 45.995-130.46 56.158-11.238 2.443-12.749 2.147-24.126 2.961-10.106 0.256-19.977-1.396-29.573-4.41-5.892-1.969-48.529-9.415-48.821-10.88-0.315-1.579 34.318-23.832 39.328-25.842 82.91-33.26 98.292-43.522 189.86-43.522 5.008 0-0.572-4.714 0-8.161 0.879-5.289 3.923-11.173 1.357-16.32-0.729-1.463-1.114-3.76-2.713-4.081-2.973-0.596-5.26 3.119-8.136 4.081-13.668 4.569-27.114 6.343-40.685 10.88-42.981 14.369-99.346 14.391-142.39 0-8.419-2.814-74.406-19.406-70.52-27.201 3.222-6.461 33.989-7.282 40.685-9.521 35.877-11.994 89.523-38.759 126.12-32.642 26.013 4.348 51.281 13.332 77.3 17.681 7.876 1.317 19.659 12.378 27.122 10.881 3.996-0.802 14.557-47.844 10.849-50.323-4.198-2.807-15.945 1.985-20.342 2.72-14.47 2.419-74.279-0.175-89.505-2.72-49.256-8.233-92.528-29.292-134.26-54.403-2.228-1.341-8.479-4.076-5.424-8.16 2.029-2.714 76.528-9.521 85.437-9.521 34.899 0 82.054-6.456 113.92 9.521 10.466 5.248 57.821 39.442 63.739 39.442 4.305 0 6.678-14.755 8.137-17.681 2.64-5.297 15.317-14.243 16.273-19.041 1.018-5.101-43.415-20.401-50.177-20.401-57.31 0-122.12-19.109-162.74-59.844-4.339-4.352-33.341-25.608-29.835-32.641 0.64-1.283 2.659 1.124 4.069 1.36 14.191 2.372 30.326 2.72 44.752 2.72 62.686 0 127.07 17.374 176.3 54.403 4.644 3.493 29.28 30.107 33.903 28.561 2.075-0.693 9.432-13.54 12.205-16.321 4.244-3.867 8.634-5.546 10.725-11.056-17.556-24.195-49.802-28.205-74.463-41.987-32.449-19.525-60.68-37.307-84.081-66.643-10.555-13.233-20.984-28.514-31.191-42.162-0.516-0.69-7.986-6.953-6.781-8.161 4.432-4.445 32.4 8.767 36.616 10.881 15.523 7.784 34.989 13.002 51.533 16.321 35.966 7.603 68.533 25.876 97.971 47.41l-0.093-0.092c-23.221-24.914-53.19-58.444-62.618-92.201-4.1-16.449-8.629-40.429-16.274-55.763-0.639-1.282-9.875-19.041-8.137-19.041 3.754 0 17.746 19.118 21.699 21.761 44.107 28.884 127.48 82.965 164.09 176.81 6.072 15.562-25.611-110.6-20.219-126.41 1.345-11.022 1.832-14.036 2.386-17.036 2.009-10.88 5.045-21.456 8.34-32.001 7.428-22.346 37.362-61.829 42.104-90.137zm36.849 201c-1.523 11.315-4.746 22.311-7.172 33.446-0.481 2.207-0.841 4.439-1.261 6.659-0.203 0.823-0.207 0.963-0.71 1.94-1.228 2.385-2.563 4.269-4.087 6.549-2.126 3.183-3.723 5.353-5.632 8.661-0.969 1.68-2.34 4.065-2.34 6.154 0 0.404 0.153 0.793 0.229 1.19 0.253 0.281 0.436 0.646 0.759 0.843 1.484 0.902 4.381 0.458 5.868 0.065 5.55-1.466 7.814-6.706 9.051-11.864 1.105-4.61 1.374-9.407 1.967-14.096 0.45-3.555 1.131-7.073 1.571-10.632 0.789-6.39 1.207-10.818 1.533-17.384 0.143-2.896 0.159-5.797 0.238-8.696zm-153.9 43.48c5.109 7.512 25.502 39.046 30.176 46.833l12.205-6.801c-3.893-2.432-31.91-32.05-35.678-34.677-1.057-0.737-2.815-2.141-3.545-2.706zm280.49 4.89c-7.362 7.987-15.684 15.014-24.284 21.612-1.908 1.436-8.708 4.261-9.493 5.441-2.797 4.209 9.735 9.022 12.206 10.88 2.315 1.742 3.378 8.853 5.424 6.801 0.35-0.422 0.765-0.798 1.049-1.267 0.637-1.052 1.237-2.135 1.702-3.274 1.026-2.515 1.775-5.953 2.278-8.582 0.951-4.975 1.43-9.055 2.583-13.976 1.114-4.756 3.394-8.487 5.691-12.766zm124.68 89.245c-7.745 4.732-15.126 10.286-23.697 13.481-8.259 3.079-2.213 0.513-9.692 3.089-2.164 0.745-4.946 1.615-6.145 3.826-1.513 2.789-0.314 6.329 0.55 9.108 0.87 2.616-0.588 6.211 1.357 8.161 0.391 0.392 20.261-20.32 21.698-21.762 5.196-5.285 10.463-10.498 15.727-15.715zm31.144 60.143l-8.1 0.165-9.286-0.024c-10.021-0.035-19.839 0.06-29.485 3.034-7.974 2.666-0.852 5.756 0 10.881 0.105 0.634-0.075 10.88 0 10.88 2.388 0 6.862-7.138 8.137-8.16 9.938-7.457 21.87-11.538 33.554-15.33zm-31.258 64.755c-1.038-9e-3 -1.66 0.128-2.296 0.897-0.015 0.12-0.068 0.24-0.045 0.359 0.525 2.747 2.743 6.959 4.041 9.44 0.749 1.434 1.881 3.507 2.795 4.897 0.035 0.054 0.836 1.368 1.345 1.625 0.613 0.309 3.183 0.073 3.631 0.048 2.239-0.125 5.519-0.42 7.517-0.601 2.606-0.236 5.211-0.488 7.816-0.731 2.867-0.258 5.733-0.516 8.6-0.774l0.589-0.045c-2.407-0.376-2.461-0.364-6.437-1.543-4.776-1.416-9.27-3.385-13.579-5.874-1.387-0.802-2.747-1.948-4.069-2.842-1.588-1.072-3.411-2.267-5.113-3.148-0.83-0.43-1.7-0.775-2.551-1.163zm-11.321 132.28c-4.249-0.852-9.482 17.659-10.849 20.401-5.114 10.256-28.052 20.246-10.849 23.121 5.543 0.888 11.188 1.089 16.792 0.796 8.807-0.461 13.981-1.319 22.661-2.639 4.807-0.731 9.402-1.552 14.264-1.928 16.438-1.272 33.101-0.18 49.429 1.79-10.889-1.505-21.716-3.899-32.088-7.59-6.38-2.27-7.628-2.966-12.744-5.39-12.15-6.092-23.644-25.959-36.616-28.561zm-42.04 65.283c-1.624 0-11.185 13.776-9.493 16.321 2.183 2.21 7.851 3.882 10.668 4.799 3.473 1.13 8.159 2.498 11.625 3.473 11.089 3.118 22.224 6.061 33.31 9.189-13.3-5.559-26.868-11.334-37.73-21.083-1.928-1.731-2.78-2.779-4.312-4.538-1.941-2.336-1.036-8.161-4.068-8.161z" fill="#d0b441"/>
 <path d="m661.4 162.02c3.26 9.781 9.271 16.364 14.604 75.031 2.536 31.245 18.288 59.597 21.523 90.714 0.978-24.104 13.534-45.754 26.477-65.381 11.45-17.175 27.124-37.79 41.333-52 12.095-12.094 18.667-25.597 18.667-25.333 0 28.82-3.326 55.956-8 84-2.667 16 2.667 33.333 0 49.333-2.757 16.541-7.921 31.528-10.667 48-3.191 19.148-30.366 57.634-29.333 58.667 1.325 1.325 10.019-0.33 12 0 4.371 0.729 12.749 4.085 16-1.333 6.916-11.527-3.6-52.601 12-76 37.442-56.163 37.443-66.296 96-105.33 4.485-2.99 32.408-26.123 36-21.333 3.922 5.229 1.333 21.507 1.333 28 0 41.905-15.232 77.327-42.666 109.33-7.519 8.772-17.503 17.672-22.667 28 33.464-33.464 73.381-58.039 109.33-88 4.643-3.868 54.218-37.782 54.667-37.333 4.561 4.561-7.26 39.113-9.333 45.333-3.287 9.86-5.692 24.922-12 33.334-15.585 20.779-74.192 92.515-93.334 104-9.23 5.538-35.226 16.559-41.333 22.666-0.028 0.028 9.34 17.79 10.667 20 1.293 2.156 2.819 5.334 5.333 5.334 0.676 0 32.936-39.603 37.333-44 50.678-50.677 85.591-60.795 148-92 3.81-1.905 36.91-20.362 38.667-13.334 1.236 4.945-6.072 12.145-8 16-22.715 45.445-57.107 83.913-96.628 115.45 38.359-16.768 81.041-17.956 121.96-23.447 3.783-0.54 38.667-0.23 38.667 2.667 0 15.805-33.197 31.863-42.667 41.333-15.871 15.163-30.476 32.504-49.786 43.492-17.172 9.77-36.804 15.152-55.438 21.361 30.021-2.525 60.35-2.931 90.376-0.194 15.799 1.44 32.267 3.375 46.848 10.008 6.933 3.466 13.059 8.53 20 12 4.236 2.118 25.825 8.634 26.667 12 1.356 5.424-33.166 11.944-37.333 13.333-44.542 14.225-88.341 35.629-135.77 38.195 24.731 4.345 50.426 5.777 73.859 15.518 21.578 8.97 41.199 22.729 60.575 35.621 9.934 6.622 21.391 10.695 32 16 4.445 2.222 16.847 3.153 13.334 6.666-1.332 1.332-13.628 0.938-16 1.334-59.797 9.966-124.52 4.581-184-5.334-21.275-3.545-47.855-23.304-49.334-21.333-1.449 1.932-0.953 30.428 0 30.667 7.263 1.816 53.393-5.101 68-2.667 39.78 6.63 82.255 15.691 114.67 40 11.831 8.873 23.471 17.069 37.333 24 1.26 0.63 17.341 7.993 17.334 8-0.033 0.033-45.422 0.904-56 2.667-22.625 4.1-45.557 5.334-68.489 6.13-10.991 0.216-21.95-0.418-32.881-1.449 16.331 2.623 32.959 5.545 48.036 12.652 7.822 3.911 12.931 11.287 20 16 10.773 7.182 21.155 15.437 32 22.667 1.162 0.774 17.336 9.329 17.334 9.333-1.502 3.004-20.37 4.123-24 5.333-28.028 8.772-57.682 10.531-86.868 10.598-19.305-0.452-38.835-1.785-57.5-7.059 28.071 21.103 46.838 51.458 71.034 76.461 4.539 4.539 36.532 35.203 33.334 40-0.216 0.324-39.157-0.33-42.667-1.333-72.93-20.837-116.11-37.995-166.67-98.667-3.234-3.881-10.541-16.241-16-17.333-3.545-0.709-12.471 4.157-16 5.333-2.564 0.855-8-1.37-8 1.334 0 3.732 24.475 16.904 28 18.666 41.318 20.659 58.041 37.061 84 76 4.153 6.229 47.234 68.7 41.334 70.667-2.829 0.943-5.059-3.51-8-4-57.051-9.508-126.17-35.923-160-86.667-3.145-4.716-23.987-46.664-24-46.666-1.687-0.338-8.446 3.259-12 2.666-0.664-0.11-6.96-2.893-8-1.333-2.593 3.889 15.49 28.03 18.666 32 6.921 8.651 18.288 12.527 25.334 21.333 18.729 23.412 37.985 56.594 44 86.667 1.304 6.524 13.306 76 5.333 76-6.748 0-24.755-22.088-29.333-26.667-25.029-25.029-28.507-39.807-45.334-60-11.024-13.229-31.23-27.793-38.666-42.666-7.796-15.592-9.205-31.229-12-48-2.277-13.663-2.858-30.857-20-28-2.361 0.393-6.086 0.344-6.667 2.666-1.259 5.038 7.046 11.808 9.333 14.667 9.625 12.031 16.156 36.931 18.667 52 3.618 21.707-31.376 161.74-49.333 165.33-1.096 0.219-16.95-30.66-18.667-34.666-17.537-40.919-27.531-94.815-20-140 1.233-7.399 22.143-67.596 21.333-68-2.148-1.074-22.484 46.423-26.666 52-13.722 18.296-20.465 42.03-33.334 61.333-10.635 15.953-21.13 37.13-34.666 50.667-7.907 7.906-18.761 16.569-25.334 25.333-2.773 3.698-34.021 31.313-37.333 28-0.598-0.598 6.667-18.355 6.667-21.333 0-45.053 48.854-155.88 84-184 3.407-2.726 26.666-18.345 26.666-21.334 0-4-8 0-12 0-12.147 0-20.073-10.518-26.666 2.667-27.273 54.545-62.357 102.02-113.33 136-3.378 2.252-73.333 51.518-73.333 41.333 0-3.262 11.396-17.093 13.333-20 7.16-10.738 7.506-27.01 13.334-38.666 17.279-34.559 39.155-72.489 66.666-100 11.62-11.62 25.599-26.026 40-34.667 3.4-2.04 26.699-14.635 25.334-16-3.814-3.814-10.629 0.686-14.667-1.333-2.325-1.163-9.955-11.379-12-9.334-5.877 5.877-18.001 38.668-41.333 57.334-21.262 17.009-100.14 44.048-128 53.333-4.848 1.616-42.82 11.104-44 9.333-2.518-3.776 11.347-19.687 13.333-22.666 22.592-33.889 49.482-61.482 77.333-89.334 18.1-18.099 95.658-49.945 96-52 0.888-5.325-14.3-17.455-18.666-16-3.248 1.083-59.14 36.237-72 42.667-35.246 17.623-71.154 15.192-108 21.333-9.902 1.651-33.174 11.414-42.667 6.667-8.574-4.287 31.167-32.195 37.333-37.333 20.184-16.82 56.239-46.747 80-54.667 12.3-4.1 28.556-6.277 40-12 5.256-2.628 45.334-9.233 45.334-10.667 0-9.395-27.204-24.46-19.99-38.859l1.056-2.775c-43.773 15.828-82.299 45.092-128.27 55.055-11.05 2.395-12.535 2.104-23.721 2.902-9.935 0.251-19.641-1.368-29.075-4.323-5.793-1.93-47.713-9.23-48-10.666-0.31-1.548 33.741-23.363 38.666-25.334 81.516-32.606 96.639-42.666 186.67-42.666 4.923 0-0.563-4.621 0-8 0.864-5.185 3.857-10.954 1.333-16-0.716-1.434-1.095-3.686-2.666-4-2.924-0.585-5.172 3.057-8 4-13.438 4.479-26.658 6.219-40 10.666-42.259 14.087-97.676 14.108-140 0-8.277-2.759-73.155-19.024-69.334-26.666 3.167-6.334 33.417-7.139 40-9.334 35.274-11.757 88.018-37.997 124-32 25.577 4.263 50.419 13.07 76 17.334 7.745 1.29 19.329 12.134 26.667 10.666 3.928-0.785 14.311-46.903 10.667-49.333-4.128-2.752-15.678 1.946-20 2.667-14.228 2.371-73.031-0.172-88-2.667-48.428-8.071-90.972-28.716-132-53.333-2.191-1.315-8.337-3.996-5.334-8 1.995-2.66 75.241-9.334 84-9.334 34.312 0 80.675-6.329 112 9.334 10.29 5.144 56.849 38.666 62.667 38.666 4.233 0 6.566-14.465 8-17.333 2.596-5.193 15.059-13.963 16-18.667 1-5-42.685-20-49.333-20-56.347 0-120.07-18.733-160-58.666-4.267-4.267-32.781-25.105-29.334-32 0.629-1.257 2.614 1.102 4 1.333 13.953 2.325 29.817 2.667 44 2.667 61.632 0 124.93 17.032 173.33 53.333 4.566 3.425 28.788 29.515 33.333 28 2.04-0.68 9.274-13.274 12-16 4.172-3.792 8.488-5.437 10.544-10.839-17.26-23.719-48.964-27.65-73.211-41.161-31.902-19.141-59.659-36.574-82.666-65.333-10.378-12.972-20.632-27.953-30.667-41.334-0.507-0.676-7.851-6.815-6.667-8 4.358-4.357 31.856 8.595 36 10.667 15.262 7.631 34.401 12.747 50.667 16 35.361 7.454 67.381 25.368 96.324 46.478l-0.093-0.09c-22.83-24.424-52.294-57.295-61.564-90.388-4.032-16.125-8.484-39.634-16-54.667-0.629-1.256-9.709-18.666-8-18.666 3.691 0 17.446 18.742 21.333 21.333 43.366 28.316 125.33 81.333 161.33 173.33 5.97 15.256-25.18-108.43-19.879-123.93 1.322-10.806 1.801-13.76 2.346-16.701 1.975-10.666 4.96-21.034 8.2-31.372 7.302-21.906 36.734-60.613 41.396-88.364zm36.229 197.05c-1.498 11.093-4.667 21.873-7.052 32.789-0.472 2.164-0.826 4.352-1.24 6.527-0.199 0.808-0.203 0.944-0.697 1.902-1.207 2.339-2.52 4.185-4.018 6.421-2.091 3.121-3.661 5.247-5.538 8.491-0.953 1.646-2.301 3.984-2.301 6.033 0 0.396 0.151 0.777 0.226 1.166 0.249 0.275 0.429 0.634 0.746 0.827 1.458 0.884 4.307 0.448 5.769 0.063 5.456-1.437 7.683-6.573 8.899-11.63 1.086-4.519 1.351-9.222 1.934-13.819 0.442-3.486 1.112-6.934 1.544-10.424 0.776-6.264 1.188-10.604 1.507-17.042 0.141-2.839 0.157-5.683 0.235-8.524zm-151.31 42.625c5.023 7.364 25.073 38.278 29.668 45.911l12-6.666c-3.827-2.385-31.373-31.421-35.078-33.995-1.039-0.723-2.768-2.099-3.485-2.654zm275.77 4.795c-7.239 7.829-15.421 14.718-23.876 21.187-1.876 1.408-8.562 4.177-9.333 5.333-2.751 4.127 9.571 8.845 12 10.667 2.277 1.708 3.321 8.679 5.333 6.667 0.344-0.414 0.752-0.782 1.032-1.242 0.626-1.031 1.216-2.093 1.673-3.21 1.008-2.465 1.745-5.836 2.239-8.413 0.935-4.877 1.407-8.877 2.54-13.701 1.096-4.663 3.337-8.32 5.596-12.515zm122.58 87.49c-7.615 4.639-14.872 10.083-23.298 13.216-8.121 3.019-2.177 0.503-9.53 3.028-2.128 0.731-4.862 1.583-6.041 3.75-1.488 2.735-0.309 6.206 0.541 8.93 0.855 2.565-0.579 6.089 1.333 8 0.385 0.385 19.921-19.92 21.333-21.333 5.109-5.182 10.287-10.292 15.463-15.407zm30.62 58.961l-7.963 0.162-9.13-0.024c-9.853-0.034-19.506 0.059-28.99 2.974-7.839 2.614-0.837 5.643 0 10.667 0.104 0.622-0.073 10.667 0 10.667 2.348 0 6.748-6.998 8-8 9.772-7.31 21.503-11.311 32.99-15.028zm-30.732 63.481c-1.021-9e-3 -1.632 0.125-2.258 0.88-0.014 0.117-0.066 0.235-0.044 0.351 0.517 2.693 2.698 6.823 3.973 9.255 0.737 1.406 1.85 3.437 2.748 4.8 0.035 0.054 0.822 1.342 1.323 1.594 0.603 0.303 3.129 0.071 3.57 0.047 2.201-0.123 5.426-0.412 7.39-0.59 2.563-0.231 5.124-0.477 7.685-0.716 2.819-0.253 5.637-0.506 8.455-0.759l0.579-0.044c-2.366-0.369-2.419-0.356-6.328-1.512-4.696-1.389-9.114-3.319-13.351-5.759-1.364-0.786-2.701-1.91-4.001-2.786-1.56-1.051-3.353-2.223-5.026-3.087-0.816-0.421-1.672-0.759-2.508-1.139zm-11.131 129.68c-4.178-0.835-9.323 17.313-10.667 20-5.027 10.055-27.58 19.848-10.667 22.667 5.45 0.87 11 1.067 16.51 0.78 8.659-0.452 13.746-1.293 22.281-2.587 4.725-0.716 9.243-1.521 14.023-1.89 16.161-1.247 32.544-0.176 48.598 1.755-10.705-1.475-21.351-3.823-31.549-7.441-6.272-2.226-7.499-2.908-12.529-5.284-11.945-5.972-23.246-25.449-36-28zm-41.334 64c-1.596 0-10.996 13.505-9.333 16 2.147 2.166 7.719 3.806 10.489 4.705 3.415 1.108 8.022 2.449 11.43 3.404 10.902 3.057 21.85 5.943 32.75 9.009-13.077-5.45-26.416-11.111-37.096-20.669-1.895-1.696-2.734-2.724-4.24-4.449-1.908-2.29-1.018-8-4-8z" fill="url(#c)"/>
 <path d="m627.22 611.83c0.029 4.444 5.03 6.567 8.948 5 6.036-21.151-42.168-34.422-60.711-25.151-3.949 1.975-24.172 5.352-17.373 12.151 17.899 17.899 38.481 1.133 58.084 7.667 5.358 1.786 9.002 4.779 14.666 6.667" fill="#2b2b2b"/>
 <path d="m600.14 678c-23.229 0-42.06-18.428-42.06-41.161s18.831-41.162 42.06-41.162 42.06 18.429 42.06 41.162-18.831 41.161-42.06 41.161z" fill="#fff"/>
 <path d="m600.64 662.63c-14.371 0-26.021-11.323-26.021-25.289 0-13.967 11.65-25.289 26.021-25.289s26.021 11.322 26.021 25.289c0 13.966-11.65 25.289-26.021 25.289z"/>
 <path d="m600.64 662.63c-14.371 0-26.021-11.323-26.021-25.289 0-13.967 11.65-25.289 26.021-25.289s26.021 11.322 26.021 25.289c0 13.966-11.65 25.289-26.021 25.289z" fill-opacity="0" stroke="#000"/>
 <path d="m600.64 645.47c-4.588 0-8.307-3.638-8.307-8.125 0-4.488 3.719-8.125 8.307-8.125s8.308 3.637 8.308 8.125c0 4.487-3.72 8.125-8.308 8.125z" fill="#fff"/>
 <path d="m600.64 645.47c-4.588 0-8.307-3.638-8.307-8.125 0-4.488 3.719-8.125 8.307-8.125s8.308 3.637 8.308 8.125c0 4.487-3.72 8.125-8.308 8.125z" fill-opacity="0" stroke="#000"/>
 <path d="m558.58 580.07c0-0.222 42.084-52.401 84.12-0.401" fill-opacity="0" stroke="#2b2b2b" stroke-opacity=".869" stroke-width="4"/>
 <path d="m780.43 611.83c-0.027 4.444-4.7 6.567-8.361 5-5.641-21.151 39.404-34.422 56.731-25.151 3.691 1.975 22.588 5.352 16.234 12.151-16.726 17.899-35.959 1.133-54.276 7.667-5.007 1.786-8.412 4.779-13.705 6.667" fill="#2b2b2b"/>
 <path d="m805.74 678c21.706 0 39.303-18.428 39.303-41.161s-17.597-41.162-39.303-41.162-39.303 18.429-39.303 41.162 17.597 41.161 39.303 41.161z" fill="#fff"/>
 <path d="m806.24 662.63c13.429 0 24.315-11.323 24.315-25.289 0-13.967-10.886-25.289-24.315-25.289s-24.315 11.322-24.315 25.289c0 13.966 10.886 25.289 24.315 25.289z"/>
 <path d="m806.24 662.63c13.429 0 24.315-11.323 24.315-25.289 0-13.967-10.886-25.289-24.315-25.289s-24.315 11.322-24.315 25.289c0 13.966 10.886 25.289 24.315 25.289z" fill-opacity="0" stroke="#000"/>
 <path d="m806.24 645.47c4.287 0 7.763-3.638 7.763-8.125 0-4.488-3.476-8.125-7.763-8.125s-7.763 3.637-7.763 8.125c0 4.487 3.476 8.125 7.763 8.125z" fill="#fff"/>
 <path d="m806.24 645.47c4.287 0 7.763-3.638 7.763-8.125 0-4.488-3.476-8.125-7.763-8.125s-7.763 3.637-7.763 8.125c0 4.487 3.476 8.125 7.763 8.125z" fill-opacity="0" stroke="#000"/>
 <path d="m845.54 580.07c0-0.222-39.325-52.401-78.606-0.401" fill-opacity="0" stroke="#2b2b2b" stroke-opacity=".869" stroke-width="4"/>
 <path d="m689.09 730.7h29.229c6.627 0 12 5.372 12 12v0.338c0 6.628-5.373 12-12 12h-29.229c-6.628 0-12-5.372-12-12v-0.338c0-6.628 5.372-12 12-12z" fill="url(#d)"/>
 <path d="m699.79 829.8c-44.876 0-89.411-36-98.744-60 34.666 20 53.79 40 98.666 40s76-28 106.67-40c-12 18.667-61.712 60-106.59 60z" fill="#c85622"/>
</svg>
