<?xml version="1.0" encoding="UTF-8"?>
<svg width="279.11mm" height="180.01mm" version="1.1" viewBox="0 0 988.96634 637.8422" xmlns="http://www.w3.org/2000/svg">
 <g transform="translate(-165.14 -148.81)">
  <path d="m557.96 470.12c-19.339-8.0591-36.622-28.891-42.963-51.786-7.064-25.504 1.271-72.885 17.498-99.467 21.951-35.96 71.004-63.367 123.99-69.278 63.414-7.074 103.73 14.25 185.04 97.876 21.693 22.31 44.265 43.546 58.142 54.701 48.867 39.279 87.433 44.42 139.42 18.585 41.769-20.759 64.802-49.481 74.057-92.35 3.9612-18.348 4.5398-33.99 2.0715-55.995-0.9356-8.3397-1.137-15.527-0.4476-15.971 4.1416-2.671 11.112 20.691 13.06 43.768 3.1301 37.097-6.833 73.049-27.825 100.41-20.154 26.266-56.958 50.17-92.96 60.377-20.399 5.7837-35.599 6.1314-58.16 1.3307-39.812-8.4715-65.232-25.632-133.51-90.132-20.855-19.7-44.964-41.577-53.576-48.616-43.807-35.804-77.07-43.695-128.45-30.47-43.559 11.212-75.936 42.035-84.054 80.018-7.512 35.151 3.909 60.646 32.362 72.242 23.528 9.5883 54.972 0.16387 65.883-19.746 12.785-23.331 8.633-49.723-9.8983-62.922-14.64-10.427-40.858-9.5302-52.454 1.7948-9.5635 9.3399-10.184 27.803-1.2281 36.559 5.3787 5.2591 16.241 6.7404 23.94 3.2648 6.6268-2.9913 8.6684-1.2324 4.2778 3.6854-10.273 11.507-30.839 9.1277-40.797-4.7194-7.6929-10.697-9.2846-18.705-6.4071-32.236 2.0742-9.7534 3.2932-12.41 8.0811-17.611 11.376-12.357 26.308-18.046 46.985-17.9 32.033 0.22625 57.919 25.13 60.844 58.535 1.8394 21.011-3.5659 41.46-14.882 56.298-7.1225 9.3399-28.469 23.445-40.748 26.926-16.39 4.646-46.692 1.4197-67.291-7.1646zm352.51 51.4c-48.732-18.589-78.344-43.991-124.36-106.68-39.668-54.043-60.466-71.757-98.399-83.806-5.5564-1.765-10.326-3.84-10.6-4.6111-2.2535-6.3514 25.152-3.0048 44.408 5.4229 27.969 12.241 46.841 28.828 89.563 78.717 34.55 40.346 52.063 56.737 75.421 70.585 47.813 28.347 107.8 30.957 156.29 6.801 36.414-18.14 72.46-53.854 99.548-98.631 3.7251-6.1576 8.1015-12.053 9.7255-13.1 2.6963-1.7388 2.7029-1.1947 0.075 6.267-1.5825 4.4941-4.6167 13.202-6.7428 19.35-6.8026 19.674-25.678 48.452-45.725 69.713-45.348 48.095-102.23 67.084-165.52 55.258-10.585-1.9778-21.244-4.3581-23.686-5.2895zm22.841-129.29c-29.7-12.6-54.872-32.429-99.708-78.545-38.696-39.8-58.678-57.145-82.987-72.034-40.032-24.519-82.483-26.644-132.56-6.6356-15.121 6.0414-22.423 9.6831-48.914 24.395-7.1395 3.9648-13.652 7.0639-14.472 6.8869-8.8278-1.9058 33.213-32.615 63.969-46.726 54.256-24.894 104.78-20.899 154.01 12.178 21.228 14.265 37.086 28.695 79.947 72.748 56.152 57.715 78.072 73.682 111.26 81.049 20.856 4.629 35.908 4.0186 58.618-2.3774 17.054-4.8031 19.056-4.9798 18.33-1.6172-0.9137 4.2323-24.362 13.952-41.342 17.137-22.224 4.1683-46.741 1.7746-66.147-6.4581z" fill="#6ccef4"/>
  <g fill="#333">
   <path d="m367.7 335.91s-17.425 20.456-0.75762 52.528c-103.79 1.0102-200.01-14.142-201.78-25.759-1.7678-11.617 123.49-27.779 202.54-26.769z" fill-rule="evenodd"/>
   <path d="m439.42 362.18a26.011 26.264 0 0 1 -26.011 26.264 26.011 26.264 0 0 1 -26.011 -26.264 26.011 26.264 0 0 1 26.011 -26.264 26.011 26.264 0 0 1 26.011 26.264z"/>
   <path d="m387.14 423.08 52.143 84.853v278.72h-52.143z"/>
   <path d="m413.19 414.8s26.424 4.882 45.888-25.575c52.707 89.421 87.627 180.35 78.445 187.68-9.1818 7.3326-85.735-93.119-124.33-162.11z" fill-rule="evenodd"/>
   <path d="m459.48 337.81s-9.016-25.314-45.126-26.896c50.973-90.42 112.16-166.2 123.11-161.93 10.947 4.2716-37.623 120.86-77.984 188.83z" fill-rule="evenodd"/>
  </g>
 </g>
</svg>
